<svg width="127" height="62" viewBox="0 0 127 62" fill="none" xmlns="http://www.w3.org/2000/svg">
<path fill-rule="evenodd" clip-rule="evenodd" d="M48.4339 24.7473C50.0827 21.901 48.0217 18.3431 44.7241 18.3431L5.85481 18.3431C2.5572 18.3431 0.496184 21.901 2.14499 24.7473L9.26659 37.0412L21.6465 34.5134C22.2227 34.3957 22.6175 35.0771 22.2271 35.5157L13.8407 44.9374L21.5796 58.297C23.2284 61.1433 27.3505 61.1433 28.9993 58.297L48.4339 24.7473Z" fill="#F08080"/>
<path fill-rule="evenodd" clip-rule="evenodd" d="M54.5679 58.2512C56.2167 61.0975 60.3387 61.0975 61.9875 58.2512L81.4221 24.7015C83.0709 21.8552 81.01 18.2973 77.7123 18.2973L63.4691 18.2973L59.4756 30.2468C59.2897 30.803 58.5003 30.803 58.3144 30.2468L54.3209 18.2973L38.843 18.2973C35.5454 18.2973 33.4844 21.8552 35.1332 24.7015L54.5679 58.2512Z" fill="#FFD700"/>
<path fill-rule="evenodd" clip-rule="evenodd" d="M115.138 24.7473C116.786 21.901 114.725 18.3431 111.428 18.3431L72.5584 18.3431C69.2608 18.3431 67.1998 21.901 68.8486 24.7473L75.9702 37.0412L88.3501 34.5134C88.9264 34.3957 89.3211 35.0771 88.9307 35.5157L80.5443 44.9374L88.2833 58.297C89.9321 61.1433 94.0541 61.1433 95.7029 58.297L115.138 24.7473Z" fill="#4EC3F3"/>
</svg>
